<svg width="110" height="104" viewBox="0 0 110 104" fill="none" xmlns="http://www.w3.org/2000/svg">
<path d="M68.741 51.7731L21.9414 98.5728C17.3716 103.143 9.99375 103.143 5.4239 98.5728C4.33848 97.4887 3.4774 96.2013 2.8899 94.7842C2.3024 93.3671 2 91.8481 2 90.314C2 88.7799 2.3024 87.2609 2.8899 85.8438C3.4774 84.4267 4.33848 83.1393 5.4239 82.0552L52.2235 35.2556" fill="url(#paint0_linear_40_77)"/>
<path d="M68.741 51.7731L21.9414 98.5728C17.3716 103.143 9.99375 103.143 5.4239 98.5728C4.33848 97.4887 3.4774 96.2013 2.8899 94.7842C2.3024 93.3671 2 91.8481 2 90.314C2 88.7799 2.3024 87.2609 2.8899 85.8438C3.4774 84.4267 4.33848 83.1393 5.4239 82.0552L52.2235 35.2556" stroke="#FFF2F2" stroke-width="4" stroke-linecap="round" stroke-linejoin="round"/>
<path d="M101.28 50.121L94.398 43.2387C91.0945 39.9352 89.2775 35.5305 89.2775 30.8506V26.1156L74.3017 11.0296C71.4587 8.16993 68.0788 5.90013 64.356 4.35056C60.6333 2.80098 56.641 2.00217 52.6087 2H35.7057L40.7711 6.51479C44.3689 9.70482 47.2498 13.6212 49.2238 18.0057C51.1978 22.3902 52.2201 27.1434 52.2233 31.9518V40.5409L63.2349 51.5525H76.8344L89.2775 62.0687" fill="url(#paint1_linear_40_77)"/>
<path d="M101.28 50.121L94.398 43.2387C91.0945 39.9352 89.2775 35.5305 89.2775 30.8506V26.1156L74.3017 11.0296C71.4587 8.16993 68.0788 5.90013 64.356 4.35056C60.6333 2.80098 56.641 2.00217 52.6087 2H35.7057L40.7711 6.51479C44.3689 9.70482 47.2498 13.6212 49.2238 18.0057C51.1978 22.3902 52.2201 27.1434 52.2233 31.9518V40.5409L63.2349 51.5525H76.8344L89.2775 62.0687" stroke="#FFF2F2" stroke-width="4" stroke-linecap="round" stroke-linejoin="round"/>
<path d="M83.2762 68.2906L107.282 44.2852" stroke="#FFF2F2" stroke-width="4" stroke-linecap="round" stroke-linejoin="round"/>
<defs>
<linearGradient id="paint0_linear_40_77" x1="17.5" y1="55.5" x2="41.5" y2="79.5" gradientUnits="userSpaceOnUse">
<stop stop-color="#5181FF"/>
<stop offset="1" stop-color="#2A417E"/>
</linearGradient>
<linearGradient id="paint1_linear_40_77" x1="52.5" y1="2" x2="75" y2="62" gradientUnits="userSpaceOnUse">
<stop stop-color="#726F6F"/>
<stop offset="1" stop-color="#3B3636"/>
</linearGradient>
</defs>
</svg>
