<svg width="17" height="17" viewBox="0 0 17 17" fill="none" xmlns="http://www.w3.org/2000/svg">
<mask id="path-1-inside-1_301_6" fill="white">
<path fill-rule="evenodd" clip-rule="evenodd" d="M1.1242 13.8833C0.636048 14.3715 0.636048 15.1629 1.1242 15.6511C1.61236 16.1393 2.40382 16.1393 2.89197 15.6511L8.45736 10.0857L14.0229 15.6512C14.511 16.1394 15.3025 16.1394 15.7907 15.6512C16.2788 15.1631 16.2788 14.3716 15.7907 13.8835L10.2251 8.31794L15.7907 2.75241C16.2788 2.26426 16.2788 1.4728 15.7907 0.984647C15.3025 0.496491 14.511 0.49649 14.0229 0.984647L8.45736 6.55018L2.89197 0.98479C2.40382 0.496634 1.61236 0.496634 1.1242 0.98479C0.636048 1.47294 0.636048 2.2644 1.1242 2.75256L6.68959 8.31794L1.1242 13.8833Z"/>
</mask>
<path fill-rule="evenodd" clip-rule="evenodd" d="M1.1242 13.8833C0.636048 14.3715 0.636048 15.1629 1.1242 15.6511C1.61236 16.1393 2.40382 16.1393 2.89197 15.6511L8.45736 10.0857L14.0229 15.6512C14.511 16.1394 15.3025 16.1394 15.7907 15.6512C16.2788 15.1631 16.2788 14.3716 15.7907 13.8835L10.2251 8.31794L15.7907 2.75241C16.2788 2.26426 16.2788 1.4728 15.7907 0.984647C15.3025 0.496491 14.511 0.49649 14.0229 0.984647L8.45736 6.55018L2.89197 0.98479C2.40382 0.496634 1.61236 0.496634 1.1242 0.98479C0.636048 1.47294 0.636048 2.2644 1.1242 2.75256L6.68959 8.31794L1.1242 13.8833Z" fill="#FFF2F2"/>
<path d="M1.1242 15.6511L0.417097 16.3582L1.1242 15.6511ZM1.1242 13.8833L0.417097 13.1762L1.1242 13.8833ZM2.89197 15.6511L3.59908 16.3582L3.59908 16.3582L2.89197 15.6511ZM8.45736 10.0857L9.16446 9.3786L8.45736 8.6715L7.75025 9.3786L8.45736 10.0857ZM14.0229 15.6512L13.3158 16.3583L13.3158 16.3583L14.0229 15.6512ZM15.7907 13.8835L16.4978 13.1764L16.4978 13.1764L15.7907 13.8835ZM10.2251 8.31794L9.51802 7.61084L8.81091 8.31794L9.51802 9.02505L10.2251 8.31794ZM15.7907 2.75241L15.0835 2.04531L15.0835 2.04531L15.7907 2.75241ZM15.7907 0.984647L16.4978 0.27754L16.4978 0.27754L15.7907 0.984647ZM14.0229 0.984647L13.3158 0.27754L13.3158 0.27754L14.0229 0.984647ZM8.45736 6.55018L7.75025 7.25728L8.45736 7.96439L9.16446 7.25728L8.45736 6.55018ZM2.89197 0.98479L3.59908 0.277683L3.59908 0.277683L2.89197 0.98479ZM1.1242 0.98479L0.417097 0.277683L0.417097 0.277683L1.1242 0.98479ZM1.1242 2.75256L1.83131 2.04545L1.1242 2.75256ZM6.68959 8.31794L7.3967 9.02505L8.1038 8.31794L7.3967 7.61084L6.68959 8.31794ZM1.83131 14.944C1.73368 14.8464 1.73368 14.6881 1.83131 14.5904L0.417097 13.1762C-0.461583 14.0549 -0.461583 15.4795 0.417097 16.3582L1.83131 14.944ZM2.18486 14.944C2.08723 15.0416 1.92894 15.0416 1.83131 14.944L0.417097 16.3582C1.29578 17.2369 2.7204 17.2369 3.59908 16.3582L2.18486 14.944ZM7.75025 9.3786L2.18486 14.944L3.59908 16.3582L9.16446 10.7928L7.75025 9.3786ZM14.73 14.9441L9.16446 9.3786L7.75025 10.7928L13.3158 16.3583L14.73 14.9441ZM15.0835 14.9441C14.9859 15.0418 14.8276 15.0418 14.73 14.9441L13.3158 16.3583C14.1945 17.237 15.6191 17.237 16.4978 16.3583L15.0835 14.9441ZM15.0835 14.5906C15.1812 14.6882 15.1812 14.8465 15.0835 14.9441L16.4978 16.3583C17.3764 15.4797 17.3764 14.055 16.4978 13.1764L15.0835 14.5906ZM9.51802 9.02505L15.0835 14.5906L16.4978 13.1764L10.9322 7.61084L9.51802 9.02505ZM15.0835 2.04531L9.51802 7.61084L10.9322 9.02505L16.4978 3.45952L15.0835 2.04531ZM15.0835 1.69175C15.1812 1.78939 15.1812 1.94768 15.0835 2.04531L16.4978 3.45952C17.3764 2.58084 17.3764 1.15622 16.4978 0.27754L15.0835 1.69175ZM14.73 1.69175C14.8276 1.59412 14.9859 1.59412 15.0835 1.69175L16.4978 0.27754C15.6191 -0.601139 14.1945 -0.601141 13.3158 0.27754L14.73 1.69175ZM9.16446 7.25728L14.73 1.69175L13.3158 0.27754L7.75025 5.84307L9.16446 7.25728ZM2.18486 1.6919L7.75025 7.25728L9.16446 5.84307L3.59908 0.277683L2.18486 1.6919ZM1.83131 1.6919C1.92894 1.59427 2.08723 1.59427 2.18486 1.6919L3.59908 0.277683C2.7204 -0.600997 1.29578 -0.600997 0.417097 0.277683L1.83131 1.6919ZM1.83131 2.04545C1.73368 1.94782 1.73368 1.78953 1.83131 1.6919L0.417097 0.277683C-0.461583 1.15636 -0.461583 2.58098 0.417097 3.45966L1.83131 2.04545ZM7.3967 7.61084L1.83131 2.04545L0.417097 3.45966L5.98248 9.02505L7.3967 7.61084ZM1.83131 14.5904L7.3967 9.02505L5.98248 7.61084L0.417097 13.1762L1.83131 14.5904Z" fill="#FFF2F2" mask="url(#path-1-inside-1_301_6)"/>
</svg>
