<svg width="272" height="200" viewBox="0 0 272 200" fill="none" xmlns="http://www.w3.org/2000/svg">
<path d="M5 53.3337V66.6671C5 81.3337 17 93.3337 31.6667 93.3337H45" stroke="url(#paint0_linear_37_9)" stroke-width="10" stroke-linecap="round" stroke-linejoin="round">
<path d="M231.667 10C231.667 4.47715 227.108 -0.0878017 221.806 1.45983C211.739 4.39873 203.024 11.287 197.519 17.5873C193.67 21.9929 187.058 24.6713 181.427 23.0839C131.829 9.10244 45 27.4845 45 93.3333C45 116.085 45 131.647 67.7181 150.243C70.1537 152.237 71.6667 155.186 71.6667 158.333V190C71.6667 195.523 76.1438 200 81.6667 200H115C120.523 200 125 195.523 125 190V183.333C125 177.81 129.477 173.333 135 173.333H155C160.523 173.333 165 177.81 165 183.333V190C165 195.523 169.477 200 175 200H208.333C213.856 200 218.333 195.523 218.333 190V152.847C218.333 149.059 220.498 145.636 223.804 143.787C231.935 139.239 238.193 134.265 242.18 126.872C244.276 122.985 248.024 120 252.44 120H261.667C267.19 120 271.667 115.523 271.667 110V76.6667C271.667 71.1438 267.19 66.6667 261.667 66.6667H255C249.477 66.6667 245.239 62.0714 243.554 56.8118C241.707 51.0452 238.3 46.8383 234.575 42.9497C232.74 41.0346 231.667 38.51 231.667 35.8579V10Z" fill="url(#paint1_linear_37_9)">
<defs>
<linearGradient id="paint0_linear_37_9" x1="25" y1="53.3337" x2="25" y2="93.3337" gradientUnits="userSpaceOnUse">
<stop stop-color="#FF8E8E">
<stop offset="1" stop-color="#AA5C5C">
</linearGradient>
<linearGradient id="paint1_linear_37_9" x1="117.5" y1="34" x2="137.5" y2="171" gradientUnits="userSpaceOnUse">
<stop stop-color="#EC8989">
<stop offset="1" stop-color="#B14D4D">
</linearGradient>
</defs>
</svg>
