<svg width="25" height="22" viewBox="0 0 25 22" fill="none" xmlns="http://www.w3.org/2000/svg">
<path d="M21 11V6H3.5C2.83696 6 2.20107 5.73661 1.73223 5.26777C1.26339 4.79893 1 4.16304 1 3.5C1 2.125 2.125 1 3.5 1H18.5V6" stroke="#FFF2F2" stroke-width="2" stroke-linecap="round" stroke-linejoin="round">
<path d="M1 3.5V18.5C1 19.875 2.125 21 3.5 21H21V16" stroke="#FFF2F2" stroke-width="2" stroke-linecap="round" stroke-linejoin="round">
<path d="M18.5 11C17.837 11 17.2011 11.2634 16.7322 11.7322C16.2634 12.2011 16 12.837 16 13.5C16 14.875 17.125 16 18.5 16H23.5V11H18.5Z" stroke="#FFF2F2" stroke-width="2" stroke-linecap="round" stroke-linejoin="round">
</svg>
