<svg width="45" height="52" viewBox="0 0 45 52" fill="none" xmlns="http://www.w3.org/2000/svg">
<path d="M20.1971 49.003L21.4775 47.4665L20.1971 49.003C21.3096 49.9301 22.9257 49.9301 24.0382 49.003L22.7578 47.4665L24.0382 49.003L37.072 38.1415C38.6594 36.8186 39.6734 34.9329 39.9016 32.8792L42.1411 12.7229C42.2871 11.4093 41.5561 10.1548 40.3412 9.63418L23.2994 2.33053C22.5448 2.00711 21.6905 2.00711 20.9359 2.33053L3.89405 9.63418C2.67917 10.1548 1.9482 11.4093 2.09416 12.7229L4.33374 32.8792C4.56193 34.9329 5.57592 36.8186 7.16334 38.1415L20.1971 49.003Z" stroke="#FFF2F2" stroke-width="4" stroke-linecap="round"/>
</svg>
